<svg xmlns="http://www.w3.org/2000/svg" viewBox="0 0 100 100" role="img" aria-label="Feder">
  <style>
    .ft-sway { animation: ft-sway 6s ease-in-out infinite; transform-origin: 33px 76px; }
    @keyframes ft-sway { 0%, 100% { transform: rotate(-2.5deg); } 50% { transform: rotate(2.5deg); } }
    @media (prefers-reduced-motion: reduce) { .ft-sway { animation: none; } }
  </style>
  <g class="ft-sway">
    <path d="M63 13
             C 70.5 17.5 72.5 31 67.5 44
             C 62.5 56.5 52.5 66.5 42.5 68.5
             L 44.5 61.5
             L 38.5 62.5
             L 42 54.5
             L 36.5 55
             C 38.5 41.5 46 27 55.5 18
             C 58 15.5 60.8 13.7 63 13 Z"
          fill="#6CCBB2" stroke="#1B1B1B" stroke-width="3.3" stroke-linejoin="round"/>
    <path d="M30 83 C 37 74 44.5 63 50 51.5 C 56 39 60.5 25.5 63 13"
          fill="none" stroke="#1B1B1B" stroke-width="3" stroke-linecap="round"/>
    <g fill="none" stroke="#1B1B1B" stroke-width="2.1" stroke-linecap="round">
      <path d="M57 32 L 66 27"/>
      <path d="M53 42 L 63.5 38.5"/>
      <path d="M55 37 L 47 31.5"/>
      <path d="M50.5 47 L 43 43"/>
    </g>
  </g>
</svg>
