<svg xmlns="http://www.w3.org/2000/svg" viewBox="0 0 900 590">
  <defs>
    <!-- Top-arc paths at mid-radius of each ring for curved labels.        -->
    <!-- cx=450 cy=300; M (cx-r) cy A r r 0 0 1 (cx+r) cy = top semicircle -->
    <!-- arc radii chosen so text baseline sits at ring's geometric centre:        -->
    <!-- r = cy − (ring_centre_y + cap_height/2) ≈ mid_r − 8                     -->
    <path id="arc-simplicity" d="M 201 300 A 249 249 0 0 1 699 300"/><!-- r 249 -->
    <path id="arc-quality"    d="M 257 300 A 193 193 0 0 1 643 300"/><!-- r 193 -->
    <path id="arc-agility"    d="M 311 300 A 139 139 0 0 1 589 300"/><!-- r 139 -->
    <path id="arc-fun"        d="M 364 300 A  86  86 0 0 1 536 300"/><!-- r  86 -->
    <path id="arc-laziness"  d="M 410 300 A  40  40 0 0 1 490 300"/><!-- r  40 -->
  </defs>

  <!-- "arc42 & LASR" vertical label on left, reading bottom to top -->
  <text transform="translate(55, 300) rotate(-90)"
        text-anchor="middle" fill="#6CCBB2"
        font-size="52" font-weight="bold" font-family="DM Sans, sans-serif">arc42 &amp; LASR</text>

  <!-- Concentric rings (outermost first = painter's algorithm) -->
  <circle cx="450" cy="300" r="285" fill="#3390C3"/><!-- Simplicity -->
  <circle cx="450" cy="300" r="229" fill="#6CCBB2"/><!-- Quality    -->
  <circle cx="450" cy="300" r="175" fill="#3390C3"/><!-- Agility    -->
  <circle cx="450" cy="300" r="120" fill="#6CCBB2"/><!-- Fun        -->
  <circle cx="450" cy="300" r="70"  fill="#3390C3"/><!-- Laziness   -->

  <!-- White ring separators -->
  <circle cx="450" cy="300" r="285" fill="none" stroke="white" stroke-width="2"/>
  <circle cx="450" cy="300" r="229" fill="none" stroke="white" stroke-width="2"/>
  <circle cx="450" cy="300" r="175" fill="none" stroke="white" stroke-width="2"/>
  <circle cx="450" cy="300" r="120" fill="none" stroke="white" stroke-width="2"/>
  <circle cx="450" cy="300" r="70"  fill="none" stroke="white" stroke-width="2"/>

  <!-- Curved labels: dy="20" shifts baseline ~9px toward centre for vertical centering -->
  <text fill="white" font-size="25" font-weight="bold" font-family="DM Sans, sans-serif">
    <textPath href="#arc-simplicity" startOffset="50%" text-anchor="middle" dy="20">Simplicity</textPath>
  </text>
  <text fill="white" font-size="25" font-weight="bold" font-family="DM Sans, sans-serif">
    <textPath href="#arc-quality" startOffset="50%" text-anchor="middle" dy="20">Quality</textPath>
  </text>
  <text fill="white" font-size="25" font-weight="bold" font-family="DM Sans, sans-serif">
    <textPath href="#arc-agility" startOffset="50%" text-anchor="middle" dy="20">Agility</textPath>
  </text>
  <text fill="white" font-size="25" font-weight="bold" font-family="DM Sans, sans-serif">
    <textPath href="#arc-fun" startOffset="50%" text-anchor="middle" dy="20">Fun</textPath>
  </text>

  <text fill="white" font-size="25" font-weight="bold" font-family="DM Sans, sans-serif">
    <textPath href="#arc-laziness" startOffset="50%" text-anchor="middle" dy="35">Laziness</textPath>
  </text>
</svg>
